<mxfile host="65bd71144e">
    <diagram id="HbB4TuHCmLJVpyTN7ktH" name="Page-1">
        <mxGraphModel dx="501" dy="437" grid="1" gridSize="10" guides="1" tooltips="1" connect="1" arrows="1" fold="1" page="1" pageScale="1" pageWidth="850" pageHeight="1100" background="#FFFFFF" math="0" shadow="0">
            <root>
                <mxCell id="0"/>
                <mxCell id="1" parent="0"/>
                <mxCell id="3" value="" style="shape=image;verticalLabelPosition=bottom;labelBackgroundColor=#ffffff;verticalAlign=top;aspect=fixed;imageAspect=0;image=data:image/png,iVBORw0KGgoAAAANSUhEUgAAALwAAACECAYAAAAqYEFrAAAAAXNSR0IArs4c6QAAAARnQU1BAACxjwv8YQUAAAAJcEhZcwAADsMAAA7DAcdvqGQAADEcSURBVHhe7X1plGRHdebNtdZeUW/akDSiW6KFwQgBgxAISRiMMCAhWR4WWzOSDh6G5YdhfDjDOTPnzJlz5g+M/vgwGJsRlq1lZBuwQDDCeJAGIXW3QG4QYtStkbqFupvel6qu3LPm+27EfRn56mVWVnVtrzq/7lsRLyJerF/cuBHvZWZmEpBlgrAhGe8SbGGGkQzslGie8fOd/yzXX3+9HDl2TPLZLEIycvNNN8n9Dzwg2XxOJhtNTZfJoFKUXrAA9bfuWsCumlew55cFODBxIegqfxzHOst8AIXXq3XN/8ILXy033HCD5LQyGRkdGZXrb3g36paVZr0pGUwCilbW6jSdzDPCvqQsB6Sa8PEBoVBP0jVQu9v1JCJ1PTOxxKF46H09SEeQkOzdrGPm6jWr5L2/+14UgZsQdP6FF8iHPvQhqdVqTqsTdCjd8p1rsKwu5fmaAdMkTAlSS3jrfgp5a2JDYgNFvpkfylTFEdELIyn+ehJ+ypR0CTJJ8enj0sTsouQKOak36hr2uje8TvLFAq4bsuXyy2T9xvWSHygI1D7qjX82g5B25gh7JJDpZibLoiSks6iMaoomop00kc4kbUiRDR+vJknCgQBRQCAdGGpKmgVNDh4CmohnBMFBY/x0zWW83TMdumblI3N5aZZKki3mpTQ+Jh/+8K3y2GM/lq//5V/IbR/5iKsT64k2cCicWUNBuGl+5sX6zwZWR8vL2h/l7aHXFgfRlUk92gaNwyVqqMK+JuGzcJkqLUgH4SMSsqqhMDDnXY9mw3uAtvsA7lw5sPEmxwd/WsTub8vP52UEbeKahM5xOZiU//PXfyMPYKP6Z/feK7L2Ve5eK59+Tlb1xwiuSXycLj907b7A700ohbbV+wnmb3VlXFQWXL0PLh3vlSz6NgOyq7LwZcbAZEyeFqSA8FY9uhCtLgagDmIXiiK1qsjRYyKHjkj10GE5deSoZGBCVMolKeZzksdAchnmvWo/e6gvNlIW20o1FZG97RHmww1oK1PGUBPmwCVHFsbv27dfnnvuObnuuuskj/pZfvyrWpOTg/6gEqr5g1rpNS5t6Fw8XL+iRSk9oa1GppXNjxslj1g1T9BPdVSzMDosI6tWSW71GpEVK0U2notAmF1cedjfMTA3yz8NWOKEt6rRhbCqqsHRxXUM7kRJ5JlnZPf27XJ0zx45ffiIlE+NSb1clnJ5Ako1I9nJBghH+xj2p+blENqfRrrZ2KTt+TIfTjALMcK7VSiXK2gT6vU6OJQDuRvw16BIs5qP3hFNDpeXE9d0A70udCrcpA4Se+ikQJ5hDPPQKYoyG7ioQ4og/PCqlbJq7VoZWL1aLr3yKlnzjneKrFnrCI9JSrCvmFffpJlT2OB5ISnIixpI/+v9Unpqm/z8Rz+SEy/vlebpcRlA1ACWYR79ZUByZ21SeJNrppFbr+Ij5ZLMGi47R1hDU3exDMuqps/CHqYmLsKmr1RLMN2x/+AqFBUerxSvnTBFnLQh2vNxsElshEcl1E/oKuL97CFsrSFNqaF+lAmEDZ97nlxx7XVy8TtB+s2bnbb3VeQ9Vru0YOkTXqsHyaB7+XBmEhpmz8ty5OHvyM5//CepHzsqqwaLaAiIg0HKYenN50B62swBmogn4o01QlBTRUTQvzNDywRpv5tZumyhxVH9LCYkiYnGIJynHoxs0dS57Xm0tP1UuLwcWnmQ3K79nG9xMB3bS2jOCND0uODqU8fKw61HBQGHS2U5PTgoF7z5zXLdHXeKnH+ByFDLtGFeCUUsWaSH8CAI2Al7fUxOffPb8tN/eFjqhw/JuhWjUsBYNThI4YbVk2SSRNYA99c0fEh0Qq8hLeJ2Rkgi5qeXuM8FW6SVR3NFvYAzcVhks1nHdXtheoW49tCpmLTNZhyxe81vblYnh121EjOUrWDbI9MKCqOJyTlerckx7JeOQIm87ZZbZesf3CayDuYNGlVH2hwnsN6RDqSE8BgEjkalJvKPj8u2+x6U47uelw2wN6nIG0oeJFHyeoLr8u6lhyYyjbubF/yTAEQyyqJt8rTDwlyqdu3cqou7tVNBvSNsm/q6zNip1fV9pT5HeLfS2coDYxA6pApSH4IZ2dy0Qa65/Q9l/duvFlk5Kg2sBrk8jyzTg/Z1f6mCfU85fVp273haxvYfkJWwJbMYDWp2klsJzsGC12l1P5i4zkA7mdCkoFZSezom1Mah6M0kQlIcJJpQXYTK2NWJ4k0X1I8rCuN6EXKvk4TQ2iIsFK4GJk2YhE3sGZw4v2VEgrNOulLyGnmR/AVkmoeGXwNiVw4dlm2P/kCa+/fT9tH4tGHpE946lceQR47J8X0HpFEqqZ1eh83egDaiW8eAums/aPBzc9jkfRhcvpylwjDG+UFWTUbB/RmIuiw2EI2HKIl8GDuOkkf9KNwoO0EY9xGBcNE30WveE0uTJIVAWvm3i6vHZCCtumH51qcU7YL7VCYlz3j0T7bu+ob94oT9R+LDj3tQvOThG4VSObF3r5SPHMF41FSBoGMg6QH7ZQnD04t9CluShC8dPyEFkLIAjcPl1J5MmuYlXVUDe3ATaySlEPFrIvRHE8FD7XSIIbqfSWySeJfCJ7/RBJsijOsW3y42WZn/VGlKFkUmCevGlrP9dJ1w8nnxK53Gc/LAVb+KWwm13ZjBFB7tDqLR1ePHpQJBABqPQlKGJU74ABj0BsjOx/RFPziOiPBDItPEJ4/gB1+JSBLT9aJLN0SXcmozCFeHbkIzgEeJlEgTeuEqMJdiE8/EmUEt4bRzky+agiqYCs5F/6CZiTLZzPAYQLj74UMnBCnxKVFOCG+iQ3mqymNebGOlMX5alQ6BWqibJix9wnNgKYWi1E9PYPmtK+HNfjSNlgsFw0XtP4l0Dexq6/mc1KCl6hjAGq4pdb7UxXAv9UIe13lpYG8QSnOgKI0i/F5qSKNpIfSHUkH+cynVwF8O/BqHNjCshDZGgjBKGXUpQco5J1W0oVosSi2QqtYfbRockAbS0m5p6kxoEZ+TimfzDZCdyoDTosAyx8cwSzhdMBF1FNKDpX1Kw5qR17AX6a9989uy/ev3ysCpUzI4PIB54M7eVSthV0gNzzcTqbEmEFfGTRMYqCo1N80DZulbayaK05QMd3oxjrB7eE/rylcPZYVwBtTcgbmxHK2nzzqqs/rV20pDP1y75mZZV0JcOzPHEZr2PVszMjoqA/CtRMIiEyOMm2t2D5++1iC64a41pYL+PVity1W/f6tsvuuPZHJoCOn5ckJ6sPQJzz8gMZlafujv5Zm/fkByWFJJeNM63OBxVNjxampgM3W8XpGBjetkxUUXQhsXpFKpwCSBPYzsQhs/ar4xx8MmRNg9LE85EcBIRmha/Lckc9W18Vx0kmn96NLemJqG19peuBHhIboiIjSLuuUgI9DwpYPYhO4/JMOII9kbUBacMjRl+LqBKv7GJAifk4PY5L7xlpvlsjsd4bH9Rq7pwdInPEimyyeIXIKG3/GNv5HCyVMyNDKkTwS53PIfh5SnFhyYMsJOZJuy5dp3yOZbPiyydjVUFVYJ5OEe85MoHP4A8W6Ix6cB1oR41TlBLI4uJoL2KwH/4W9/R55/5AcyVK5IfrCIJJzYnCxITFMHTr2O1RKEP+AJf/mdt4sMUsOnq5+WPuGp3emBhp54+Luy7Z57QfgxGR4Z1id9al/iHxwlfRE261i9KntLp+RNN98kW++6U2T1WmYE4TFahwEiCaYDJ4Hdbt1m99m1TRSuOr3kORMEK9MUdJqgYTCrqNXEH1MkMFEO/OX/kGfuf0jOge7PDRRUJ7gNKQTtYNMasG9I+H1QGlfeeotsJeHVpOlQ7hJFlx5cImBvK9FaGydnSbsz5zxsjEITAreI8RkAKYZzBcnWoP15lElDFOPaLHNwTZCQArvUCcIif48CjafCl0501bCTbi7xEB5vmH+uRJkYF0RRqIZN/HFmvVaXGghdQ/vqfFLKZxIUfs6Wb5tW4EKR8J6BQlGK2MzyWFJNIEiW5+za9y2TSOe1luf9KQN6LEWgGo+BDShA81DyPDvG4NG0GcgXpMBP6sDlJ3ayhQEkpBTdG38Uxplo+DSiecUkj/DwGnWIhISZKwnzNaHGz/I0Ko/51ZIG4ijWtsk80qAPTKI600W7CswfqGMycMGPBGG6YYXrJkHr+Jdl2z4nTUgX4QN06mxuIvnE1T04YfOgigim5y2Jgj9MSlt3poL/quqSJNS6ZypJ+RNwqAfseFaPaNEYCqa55NEHWO/UZRj0tmsv+4ZmF8MpnDjMC37T8ElI0DmpAoc5laAG4pDoAAQkaEBL1WjK4JLvi7jz4jrMae4FOuEMRzFpIiSIastZypT8lLRe4nGBGHmVwBbOnrN70WdUEvkCn1xjSuRIfvecw56+6rtH5vfxOllSiFQTnuDwhdpNdRgYQmEcUqrw1KEzmNKlnk9wcs5WFHRNzhT8fID/jAC3IVwVuUdq8jkGlASFyoN2fwNhPO7lM456HX7uA3jixZUnZUgt4UPwAI1aSgWDwMlAP8+hpcEwe/DEAQ5ZQ3ETwV6JtYk0JwhNkjMlB+9n3ZIE5LO3IJWIXvjOjoW3xfGERgX3QlPzKEDJrsI+4MM8p+W5MrRcmjvedjdJGVJNeAyXHsLw4YhJAy1yfgyc3+xlsrBiuUnTUxREtmlzdgGfLHa3XWcDM0fmUqYsRDRR0E6eqOipSgfRNxtNNA/80baC7HRBfG2/mkFGC024rJB6wqt+hl3phAPq/PzEjraOpxL0ZBDXBjfYDvMzsDaB5lLwx5HcC/sgCQyPSws+H99uxtkKydenw9UuFH3S7OPwx0nKQEqkG9DkuhRj2FrLMkwY2Kd8N57gpAgtCl7z4TnFfXA5WbD4LynRdkDYFBMiaFoEo3MoEXTiUAlw+F2MbUi5aXWvCLvNamvj6q711WFVJpS2XFOBFBDeOpVuvIPdsOvDqDZt4/wuNWJxSa1kpGnFtvLjJJkNoPsW7B8ntdO0LbFWh60PkdRrUwMMzMXEoWPSlCIFhCf8sEXj4AaFRNdzZ4h94se9BRjdoUnz8PCTSGysSZQG8RTorcgPn0qUpovoq8gLKNxAhnLG8FkkmzFOCejnB8LwaAOt0alCCghvFCXCAXa93T7k3UdgDugxBaG2XQyZOzAvpywc6DNZPkgB4dHh0RHFVLhhCgQqWv+pC/BWH2cI/Uygm0H64Jq/V8Q17kLLrMFbk25H57i1jTiD/Jcolj7hOxB9KozWjuwWYq6bBq0wgjlz3+Xc3kyYuCRp3YUU1oEwN0QYFvmTEgZoRU+TMKVIgYbvDg5L63DO0TqJ3EQ4hHM1nHGNu9BCdGuL658YLLDbjQAn1HJDqgkfjltEej+IU8geDK55W/fOXtzmbfFE63CGmIs80oLUa/hEVR5DRM55gNn9iyV9zAzLxKTpjj4tuoArhR07hk/nlilSRHjS1tT5zAam/Y6Z3382gXb7ciZ+6jW8nVgqjc3VGHcdwfvb4lMgi4WeSB/2b0qQasIbKfQdE3R+9J4JiU+Bn9B4LxwlfR02CFuqYu1bckgh0Q3p37QuTUosC9CuT0KaezzVhNeXxuC6LxZyjeG1vRNjiojhaRRtC6SPuQP7NYWgjnF6Rl8W8+QOiW7XROgnLJ52Q5R2iUofc4uUEt7gNHw3MTi/Y72Fq8sgkz6mYLmd2KSY8DMbiE72aB9nF1Ku4VvKuZMYQr+9I6J/bSkwtd/Hskb6CQ+iRufvod9fE+7abXGjOEqYNoXSx8yx9AnPGpK42Yz/RL17SzB8l8QGPyIDiYw4s/DdmXZI9pY/zZjv+i/Hd3VSr+HjcINkAxX6++hjmRA+Tu/oeDJQgVFcTNKM+ai/rp5+NV2OSD3hQ/IqyeE6k4cfw3YwNw5Ln1bpY+ZYdiZNH310w1lD+L6G7INYfptWmClq0vhrIk5wNU9pznh3WRzZ9NET0k/4BLIaudVFnLnTwvJKi/QxYyyvTSuk0yf59Sfq+zjrsexYYE9PI/jrMCxROXKGpE36mDFST3gjs5IYxjld++FeI3b4KSL31BWCJG1i4SmTPmaG9Js0JHlAWEL9PiwCrg1h2j7OLiwbDd8Cme3ZHZC800OmM0FSfgstfcwMy3Qn106FbsQIydNNOiJuL5nYTOQHKEwsLJQwPp4uHt4jmLIXMYT+5Y70mzReEhGMZDjQJjNBWEZbmezBJLEEPDUySUIYH6ajw71IKD1gpu1S9Jb1sgCHJvUIzRX7IiH+wIH+qtNkUxuZQ6KQj7NpuJXRM+yG2cgswVvdjxs4aU3vUAjvbzYk5/ss+lSYJYlwBhVaYpjNuC8p2JNVguPEX6vjhlUaIDp/qrJedVIrIwxuoyZS5XUjJnUI4nqRBtL2IvzZTBUSaw4l/AnKhHIzCDeROsKmCNpAqaEfUL8C0hWwgvBXAPWlu7ZnFsuH7ESqCT91KDLgQEO1VTGXl1WFosjgIFoJbV+Ey5+uhGTydP1POLZJvjfhLwKGko2J1gwCbjqbPkbYM5XoLDVZMqjTtGJ1BcFHIAVPcv62LX/B3DS+rpgsUv1+5dA6BCtCipBBpZdurVkzKCnlT7Usp//hW/L0PfdK8eRJGRge1GB+Hw3B3xptQKoYsAqaVEH4le9+t6z7wO+JDIHseQxoA4Ekhd4JLEjTg/KSYDb7rNFDG+Lt1CK58qBzS2UpPfyw7PzfP5JsuSL5Aidsa14xLSnCxWICE2QfVsMrb71Vtt55uzQxBvy1vzRh2RG+wmUd2roEE2XVxk1SXHeO1PTnGaGhMBmyWWjobgTsEfbxt+45nXk5vQzPdCnCPFof24MpA229dqAoh196SWrHjsMEbEg+P5Xw/EPLbAIrwysk/O/fIpffcbsIxiBtWBaEp6uEh6+OQaQNWoF9WoW9WuPIIbwBPwnPfZz+zijvVfOjd0S/ahd1GcwH9WaisPbuNH8Y1o5euj/ps6WtX8t2YC4z/5QSTD8QHLseWTk4hL6GLV/Mu7xAbm0v8uTP+YeEfxMIv4WEHxpw2aQIKSP8t0H4v0okPD+YTdLzFliXPgTKHsTQTS0GLd7U2X5IOcxHX0SGKrTJEMKlay/T0GvZvZLYSknKN3mI0V8Ir0021CzJog0NrI5Zr+EJ3uW7btlo+PQYYKHtnQDGkPz8zda8F/oFA9ps1rEZ429rQ8MH0mTcDIR5UNrCJhEmNUw2XMdkMotyUKkkaWZQvhfk0vFfHeX1Ila3eqPWJvH6toTpa1LgL2+jn5qw57ni6WZVxU0Ut2mlDY/aIA3TcVPLGcAVM21Y+oQnaQmvuULKR1Fe2BiKXVPrcsAacDFMMHdAoDMQ5jFTacLmMQmvk+InUfnw2sJmIvH7rZwkYWeRyLjT9aX2Md9Ncu8nRUA6ffDFeIhaU3Q1fbrAqqcGHBSMoWqkOBhOaQOWauogNXXgnw8JjzXDcO4n3J5CEsXi43WL58f4mUiY17QC5ur36pO3tNXZwwGxVVAlToe2ieXj+oSfV8Amh7ammUIrM97V1EihVkIyN1Duct7QwPJuws2dIQvi5GguBJKDfWx+2ub6pifSuk0hzYZWXvU6dLAPj4tr28yFq12bIJSbX/rtX3TW3iYwzyBqCunawFWB132TZu5BEiuRm5KH8Cgtj0EPtXz7wPq/qu75OgHTzp/kUbdQGJaBbUsBczuKpeFjfZ6SxPPhk09KGMZ0lKy/d6ZCRWGCrN1mHvmpQyagUzMU9J0K/Fm4TMtXM/T1DOw5MhBkqGnShqVNeA4EOxWk4OaTGp5BBl5xeUXX6xk8l2aG8dqlnD/RR/AdhJs/SlJcXMK84mWw2eF1lC5w4elZbFUhg9UcocC0UdFr9p9TFtFP90dAJP8yjSe8ptXQ9AAtXdrgiYapJA5WA4PTzOdlMgehH8QyaajLcEiGbgEDU4C/gPAC4rsL0zSZdkr6PMTlT6mDaDV0XTepo3xXF1Q+/mqC1p02usvL5ZdJFIsPpeHF2e3mTi/R/iFwGzyOhGDRdIIyTVShYF3F+sKBgIu0WCmQDF63IU4b5Zf2Obx2JgVqpTIhv7n/Qdl+732SOzUmmcEBtSSzGHA9TnOp0CBMDN7ll1t97wPQjVkP0Hu9tGAhLpQPtloa2YVFL7D58titFFLG0sTBPDQWt1LjJlYx4VYeDRq0Gkjk6jNToEQlMpzJOi5bhTE/1ge9qysNjyRPo5x91Ypc8/GPyJX/+g+lMbQSafheanqwNAkf1YgeLp9wKxXZ/Xd/L7945PsyWKtLrliUGmzhep3xdgtI4wnPEMtGTxVmAN6nEt3mDCUX6iaZFqqwUhwCzijMuEoCkzY4MXwCuzdM3+leg2tarNAYOp+msHaOrta+VpsRhgs+uCNF6tDsFYSdQpo3vOd35KqP3CbNwVHc5yZGWrAohI8X2L3DkJqv9NaqMrb7BZn49T5ZkS9IFmZNJtcinsuT/jjhnY7tFbyX6U0IR1q3yLO7LF/CrggX0nIJpVQHwoXl2DC0Ujof722/u1Ue0Z51cjlxWFlu/bFyXEjrr8uNT2DpqzXqUiPxsZquefWFkrnkYk1HwqcJC074pMLCYbJ415lhHDQQ30WnRuc5NatdgI3ODdeSRWtVcOA1Ea9z2ANE2PJ4jyVdW9rwvhBhmunQKS3CoeV1CVBFk04sCuGtO7sNQ7e4OJhWZQ6awjJV2rKKStArB/gnm7qJc+fY0JbqOjjN7HSovquCa6uf/g07IVZvDYoSxIHYIKplrsAFGePrgSE0a6brJ0sb3eHbRRPHAS6VDt2euW9lRrkuChbXhmfRbD+IwwcqSV3BzmcVbdOpA4rbrO/no/LMOjzn16J0BrQHsl5uYvCkw9eJ9aXDjS18vpozsnRDM0nLCMg6ldDhNf1BHdvQKXwm8PkzK6UNWpg0keBE80BXYB8eVc/f07p1wbAghA8L0DYygMVS+P66dZq6DHeXkaetY3jRFpAA3Dddkm6IyjcwwMSDdeURI1lOMwtGsD6mRxRT6VNUPbEh6YP7PMLqhScsDHfdgHsoPNbkwyoiPlS8dMa3w9RifGazgOXb6WmqlqW1dWWwbvGymIZ9kGMaFxTdY4jdMt+Yd8IzcysgaqoF1DGQ/CxpBft/ftaS4JGbVslLdHRhPQM33rF2HQ5+VMhcAHlZnbQI/gFJ+WGSwpDIAN8LZxxXIqef1aQJ69wVvIMOXHqVPBAuG6WySBV9w36xbJgm7INowujNU4uL91cvYB1osxOsiz9u1T4O69nJptE2IO3oCpFi0ZFe72Vd6LpkWlfKAmFeCa99Egjbpa/s0sPBnMBgvvCiHPvZz+TokSOsDLqv6RSCdhjJ01RtqWCQ87VcdCqzbAftZqaYGpMUFAG3MDpM0ub3ZTmdnZMxEH79VW+RjW99CwL5EAbCygNKAyTm+Foe5kZ1V2ECxKC+fG+F3NLrKpRApSYHH3lUygcOSh3XebWbXS4uD/vrTSv80XdhNBSXsyF6ANbH++BvmVZGGV7pswQrEHCfKsMoYoKUUd/XXP02yW/dKrIKxNcxgYSd4oMWCgtCeHYbF2WSoADRgDK01vO75IWH/lZ2PfmUTIyPSaGQ18FjvzjCYvAmeWerimFnx9HeFCu9HXrf1GAHRMZzaIF3utNquhnJy9HCgLz5zjtl60dv09Bqsyb62VmggJt5Bz+BRVMnNFuYL8nk+sOF15kGbpakb6AUfqvAWEm2/cf/Iod//qxUSyUoyoLvD5fW/iIQfcYMqCA0dxc+h2DfkvAscVrKeC0+ns/J8GWb5ep/dZusfdtb9QP1fFLNXHSPRHFJFwyLQ3iSvVSVQw9/V356zz0ydOokrIIB9MeA9lUTdj2f7HEA3QtKU6s4fR8l36PZdUFc+URAhI4jvWhJZjIvxwpFWfXOt8tb77pDZMM5UMolaWLSUsMVmRgEYbvdJOF9rcJ5ssP+yDMSSevaVvSPkh39k4E2f/Fl2fGf/6uU/99LUoC2HEDe/DCLg6uM07q41+dtL82p/wyHNlwhNC/8b+1NWtAatJXFkKyMo867SuOy+Xd/R955179BH62Xer6IbLKqECK0ipl3tNTOPIDtiIuCnZMrSvn4SclWy7J2dFBGizkZgnYswiTIqyAJapcDeVqS0U/o8HOYha6ShxQgxTbJQ3Igab6DaFwsvfMjL5DNylW3AO2Feh7Y+YwcfeoJTOLTWvcB0JuGh3IOpFdthn98AJ/HX5NiBnWEZLHx5QfL8yC4KgPdy6Dhpybk+JM75MTBg9DekzI8NIDFA/mjbUUQqYh+oPXENxgZzr7JIiDsrzzSnIkwTxPtV7SZrzwXsNJQ+A0HJvws7MBAsU1GkOZV6NPSb34jlZPHdfXDeuemo5EhIsXCYF4JT7A9LKStXRgMnj4UMXjoP2nUq9JoVLE/m8D+tSTVWkU1fPSRMp51e7fO1wmmFX7ULSncCV9JSJJOaZ2/3uavo76Zelkahw/Kcz/8gTS2P8WlCRqQdEZrueErlyV7ekJyELrZ8fGW4DozUcJKB4F9nuWXIlVhxvBU5nRJJp/aIbue2iYN5GGdWEf+JIsqXkgOBCLJaR/4d7u8UN+3jJu5EK5IfA2CdG19Aoz+ptQ4LpAKxjGUGtqUwx18pZuvQbNyrF640i002E3zC7SNjbTxUHDzhUEpwIypcyAxaA0wfzKPgVK1hUBMCn5ZUIavEED0Hi9TPrnTUZDfGUoTwjc09S3NSFBHaNYCBnMV7PYDP31aHv/GN+T4Qw+J7NwpcvyEaydPb4ZGIMMiw5CR0ZYwjN8UMMAviEL7eFo1PiGy9xWpf+9/yc6HvyPje/ZIEWXlh4e0zEkQvE7KtV6Qh/A4FGTMgHRZCkjIa4RzXzAT4T3dpElhPQLJQPNnoOE1Hn4n6CMV9y0SnCSsI8lAHijpFonz82rDK3zuZhvz9EXnORTX4QcekKf/6i/kHAyjpmE8d/165RCd0CwSkjoHQ+3agbpR658sl/RNwsyKFXLulstk/UWXyMj69TI0ulI/rMInlFyt2NW0i9XlP/j1HX7ElU+Py+TEhBx7aY/sf363VI6ekCFMBJoTRRCKH+BociNLbUmiqZp3ddA68hLChYXgpp8nJTOBOyjoHS53d8/UkjJSgXLYX5qQ0ddeJu/6zL+T4a1XYJVgfWnW+bJmVuQZY8EIz4bRy+L0RKEicuShv8Om9c/lVXUs6SB6DQNa4Jkt0+nfpYGgCd7VlmhbSF2uSDUQsYQlvIJNZxnhVb8a5UC6SYQxrX3K3z1Vxn08uQEpcljJeDpTRFi+3pAB3FdAXB5x3ADrBGOZSMNy2X8MdzVztePHBvVqnoezHX6ysS1Ae8kZKaFOe2Cmrnr96+SGT39ShjdvAeFZb34Xju9N69QFgq4uCwntFP5BQ1etO0c1FSuhkwBE4HEVVz/2QyiLibAerKurH7Wsf2EAhC6g7msKA7IeE/bcQkE2gZDrQdCNcM/Fhvd8bOIuHBr07oBcADkfm7rzsCF2aYqyAfduWjEq62D+rBwcwAYVxIfW5aaU5Oeep4j0PI9X0qN8E9gN/BAS+g/hXvhqr0kYPhdir2Fr+z3smsJ+4jBXsHqNrF0tw6tXa4z7t3iYf8JbD3gYsVlyYeN6GR4akkloNT1VADFCqAalZvRai3+XhKAN1LWsl9O5rknc0JKYwyDuKtjvaweHZRT+IbRrEOSlDIPkIwgbBfFXQFYOOpcnVAXylhu+agkbvjK6rYn+okb3/RZ1pPkpHMIOol8x4CUpfpZilrhbd2y98/2AKoXXDVR+7YYN2Ldgz6K9tbhgzRceNlbQZsPnvEpOg/BlbNqoMZVEXqzTCHMXE1YfJ2gANSfNFmjePLQ6zTF+9YW+QclvHajVpA5pNtAeSKOOTSXaWa/XpYHwBr8sqVqBHwJzjs8feOrCIz4e9ekHqlVQIIQ90l6HZLH+Yz1Mwn49U2kpIQ5iazgJLZ8KARO/BrKvPneTrH/1hdBuNFUD7R7etICYd8LbIEwBS14xLBte+1qpjY5KGSqSJq5uUiH6Ihb91GwQrKBLQrRe4TUGnkdyeiwHDc9vLq5iJOs66DxlwiSAS7/w/X1c22dwOTkyIHiWx4teeKKhXxyVIPblSkkSffCasgD/1K6Dy1dF1AzVQUUI/DyCKCFgAjb8uZdfLps2bxYpDrhIwK1Wi4NF0fAkivbQyhVy3jveLoOXXCyns3lHFESSROwT5TtqqIKAXqUb3DD1LkkwUysUp/k4AWjSg6Cw6/ndMjVodBVodbo0e7hpVQ2JqnKlsOcLoSa28il8P8bekWHzGMt/LsylMpcS9dl8CscG9WRv49LZ9fBV0e4xtPUobPeJ4SF5zVvfItkNG5Eih/ZxXJl68TDvpbNDKG0wUtJmv3yLbL3xRqmtXiPHqnU95dBYnmyg4yZBAsJZi638ugrGPUkIxvcKSxvPh1vVNkF7cl4KuC7wqSk0OO15HpfzLL2IOMoAN58MRzpu/JQsIEEe6ekqbRKunR+0VpI5UYUAlyS3xZDuQgn+O2CPkGnCpofU0PaTqNKpkRF59dv+pWz8rd9yzx009eKSnZj/Y8kYwsIy0FB8Oinlirzw9Xtl+7e+LStgz64Aq0awHPJ0gqNIzcfOmquq9pqLDWg0sDEkrSbxEJ0kaIdpbg2z+3iN/3xcH8YTSmyk43srkQmgDtO00sXrYEnaQ+cHXM30yXAG0zdbkDLaeahekUOwcS55x9Vy3Uf/QDLnn+9MOTe1eRuwELVLxoITnrACVTuR9Aw4fEyeffB/yt6nfiKNAwdkuFKRDatWYeCxnGPDx+8rtwcpdp7Nqqt55P2Glo8NbO/eM+lqvTfIj+VMfTDmiGpgGqunOzsnUVwNSWR90IZLfTUYfoKmCsHz+TB397quuzeO6FVeRNs98ZrNNbgP4Y9NUMpo4Bg6+wgW7Q1vuEKuBdlXXnYZGsHNKuvMts13jabHohCeYKH6iiyLb2Cbw8EeG5OjP/wn2f3EE/Lrnz0jgzBpaBoUcnnJ5wogADSJksSZEaoVQX59s5L5+QlBkIgkO5++09Uw50zpdruLZkOIVm4thPcqsVEO07Eb9RKk5ves+wRaD9rzJLzl59I6U4Wgrc+PBPJoluFuRfP5Iy3b5SaEy485aVwXdItNatdsUIMcnZiQCbiNwSEZPm+TnH/l6+W33329DF56sT+ZMaJ3r+9CYdEIr6BWYvHsC5Bbl77xcant3Cmv7Py5/Pq5/ytHXtknJ48ckxI/LMLBJ1lwC12SPs/H7zAJjAC2/KspALeAIvRDJx5h13PCdGu8xiNxmMbuJRjOcnOoN12+VKb1AnF5nxKd9fWTIqoj6utI7HLWL5KCn/e7a7QHYitZPp/X+CY2tkzDlYB5cCVwebp8mCasaxKmi+8Jvk94ErXm3PNkxaaNct7Wy2UT9mPrr3ityLoNaHwJHT+EVFRGpkjC3lscLC7h2W0sncTHAOv3zxCw6THaIgd+Iyee3y2H9x2QsZNj7vwawi/kpxatwOzhuTYHXpd/DIAzE+DyfBx5FwPCMzzsci3aBxgZfdIIPIIkwnh2Ga/cqYo7WSFp+e3ATOdWHX+ywrQM82k0DyWqIwHjwiEw04TpGedMHj6AwgqA/Nk+5s07+AapaX7CXMbpvXrVjnj7ZgVkzHxI+NdddZVsvPRfiFxykftFENaBEx9aiXa9JnY18rK4WGTCO1Av8Z9SQF+QQpVAWO0g/oaqmirw0/Xmi6bh8s43KTlZdKn3YKd7QkWPQg1Mxslk/ikIE3cBy2Ad6BLM0/Jlfcy17qXLeK0bBBpa6wit3ZbG8rR8CfoxyRUWT4RpCD9ZFNpn8wy2h/0+DE1uZWubaKLCr2Pi+yK5sxcci0p4KzhaiFWTOQ3GBzkkwwDsdiUOBzdeVfZhGG5kgMsQ7WL1qG8qwmBL0yFpO5gIGQdmiWpXJbqPM7AdVi+bCElhCn8v43y+mpWlpVhceB0idjnvUFL7OpmSIrSOVhmG+fBFxqITnks34axc3y0YyNaCjHBGWTVDTa4IrkkkYpomxWPteiZdwYkZplcTwsjLcIsL0vCUibZ3NIEJam5M7NDM0TimYVoD87F7DLw3KXwhYEVG4+FdriysT0R2cxlvaRcPS8KkSULYTUSnSrL62pUdEpiNHkc8f4PZwfOCeB1JjlysPKZhEF1u5Gn3WxqmpwmkmtRjMchO+GKtScm1sFjDItU1wJIlfBLmsvviAxV2Q0j6Tt2jE8zSMY1qNXfZ0nL+mmktnzCcQPAkN3m4R49SSfD4Ksb8iCmrWxrg635GozV3SBXhe0UvDUoahk5Dwi7iJDBXARK2mSEJZJxUU8WfzvRIVruHUDMp1OZ9nDGWHeFnQnZDN9KH3WOkj/sNfO/H/VhCey5MxzN0uva0lcemIRgXv69XMO+Fgj4sQzWT+nm29V9ILEsNvxgg6ZQM0OR8VmAE5rvynWCTwIiikwArh57t2wY8ACeLTRSW0XZfHz2hT/geEJLSwDBqdCN5R6B3zUbnjzggI9WQieBIhMPRixlE+75Hc6kPdJV3++gCI/uJEyfk+eefjyaAalZPtlf27JF9e192BKSYmYFofs1ItlhwZCehLR6OuU1+Jw2zYn4Ue5AD1PnkmelwHz8pFYH39zEjnDWEV43cg7gvfGoXvtJAefjhh+Vb3/qWjI2NaTjNCuLF3S/Iffc/IN/57nelym9CDjVuQEpqegWJz8nCZN61F8b4scDy6dMIw9D4CZEfHHDpkC/f24nA+8Oy+pgWy4bw05GWJypJEgdPXULhCYt9X8vhw4fl+PHj6nfvzuSV4HyY9JuDB+XEqZNSHBrU+Ff27Zef/PjH8tOnd8jBAwc0TL9QCnnxG7l2Y6V48omfyD8/84yMnTolBf4qIcieBaH5XTfHjx+THdu3yfgE30UU+dVzz8m2p56SX/7iWbdCABOYGGxvH73jrLDhZ9PE+GTgU9Kvfe1rchDE/vznPy8jIyMazg9p79u3T+MuvPBC+aPbb5cnn3xSvvbnX5OnQXZ+uPvaa6+Vz37mM7J5yxZdFR588EG577775Je//KWsXrNGbvnwh+VTn/60rFy5Uh577DG5H3Hlclkn2Pved6NO2O9///vy4osvapk3vv/98rk/+RNZv359101xH1NxVpg0tLdnKk6zu9MPunxFtwDy8qtEOIEopdKEEpq2PL9Eip9L5Rucz0BrX/mmK2XH00+rCXTFFVfIz3/xC73nsccfk127d8t/u/tueeInP5GHHnpIBoeG5MdYDVguTafdL7wg77vxRvnvX/2qXPOOa2TP3r3y7//0T2X7jh0wne6XVatWyb79+/RzsswzvprNp1jbTdKG/qbVY7pBJBGr1So0dEP41d4k5xC/HxIoFoswsfNKdoZTO7/yyivy8ssvy2te8xq566675D3veY/ev2PH03IAJg4n0ATMFd5z7Ngx+eEPf6h55TB5VqxYIW984xt1xSC5jx49Ks8++6zs379fw7/4xf8gb3jDb8vg4KCfoO1m2HxK2nFWED4kcydCO+I4SYJpeJ6Pk6g1mDLj4+NKYp7e0M9zcpJ18+bNsm3bNrn55pthkrxPfvCDRzWcaRl+zz33yAc+8AG5+uqr1f3mN7+pE+rkyZNaFsuhEBs3bpStW7fKV77yFc3vYx/7mDwB29820kRY94WWtOGs1PDxCRCXENRqDONyToKR+PwlDhJydHRUB532PAlNPzX2Bz/4QTVlvvzlL2uaL3zhC/K5z31ONfQVV2yFhv6iPProo2rDP/7446rdmZZ5cyJxYtikIrhnYH6f/exn5Ve/+pXccccd8lWYO0n17aM7ziobvhO4QbU0FLNXSXC7j8Rft26dntLs2rVbwwgSn5tJmjCXXHKJmjunT59WU+T92Fzee++98sd//G8RNq6TYsOGjbpKUHOPjAzLeeedJ+eccw72AyWdOCyPZg1d5k2z5ciRI2oafeITn5Dvfe978tGPflQnBMXq10dvyP0nwPuXPUiOZHFavJXG2av23oulIxFJ7pdf3qtfqkTCvYAN5vbt26WBDesNN9yg6amNH3nkEVm9erWcOnVK76lUqvLe976HualWp/nCPQDv5QnM3r175OKLL5Hd2NAy7EZsWjlBXnrpJdXmDGf5tOd37dqlk+uqq67Sick8FwrshzRjWWp4W+qTxLR3KAw3UhMMMxvZ7GRiy5YtqrWpzbkRvfXWW+VTn/qUbjo//vGPy6WXXqraetOmjbCzn1Cb++abb5KdO3fKbbfdpgR//etfrxvPu+++W66//nqhviH53/Wu6/RYknLRRRdFewYePa5Zs0a+9KUvyU033SSf/OQnlfjXXHONmk88QbK6L4SkHf13aXqE2e8En7RSa/Oa5Dv//PPVVrdTmnw+J4cPH9GJMDQ0JMPDw2oOcRWwPHhSQxudeV1wwQW4fyQ6Bj106NCU9DzxYXqeAG3atEnWrl2r4X3MDGcV4bs1NdReTOfsepo27VqNpKadHsKtFJMROXl/SNYQ4cQJQTIzPF4eCc57WGYYzzA+AU6qYx+d0dfwHkkktzBqXhLMNpNxMJ2dqNDPNNTyprEJTgp+Tw3BNNwfGPE75W159TF36BO+C7oRztn57o3IOLlDWPfONXH7k2F2SD3hZ1L9bgQxs4RmAskbEiqMI+JmBNPShKGWJmZCRMubMBPFwHws3uozmzL6aKGv4T1CgndDmI5+M3mSrkOE3TwTsnarl+XZJ3/vOCuftM4XSLxQQ7sJYOLs9+nIaSQm6J8ufZ/sM4HI/wfGzFMrk0x1XAAAAABJRU5ErkJggg==;" vertex="1" parent="1">
                    <mxGeometry x="290" y="320" width="142.42" height="100" as="geometry"/>
                </mxCell>
            </root>
        </mxGraphModel>
    </diagram>
</mxfile>